<svg xmlns="http://www.w3.org/2000/svg" viewBox="0 0 512 512" role="img" aria-label="Стоматология app tooth icon">
  <defs>
    <linearGradient id="card" x1="86" y1="54" x2="430" y2="456" gradientUnits="userSpaceOnUse">
      <stop offset="0" stop-color="#F8FDFF"/>
      <stop offset="0.54" stop-color="#E6F4FF"/>
      <stop offset="1" stop-color="#CFE7FF"/>
    </linearGradient>
    <linearGradient id="tooth" x1="170" y1="90" x2="337" y2="415" gradientUnits="userSpaceOnUse">
      <stop offset="0" stop-color="#FFFFFF"/>
      <stop offset="0.48" stop-color="#F7FBFF"/>
      <stop offset="1" stop-color="#DCEBFA"/>
    </linearGradient>
    <linearGradient id="enamel" x1="202" y1="105" x2="258" y2="317" gradientUnits="userSpaceOnUse">
      <stop offset="0" stop-color="#FFFFFF" stop-opacity="0.94"/>
      <stop offset="1" stop-color="#D8F0FF" stop-opacity="0.36"/>
    </linearGradient>
    <radialGradient id="glow" cx="0" cy="0" r="1" gradientUnits="userSpaceOnUse" gradientTransform="translate(256 255) rotate(90) scale(218)">
      <stop offset="0" stop-color="#38BDF8" stop-opacity="0.22"/>
      <stop offset="1" stop-color="#2563EB" stop-opacity="0"/>
    </radialGradient>
    <filter id="softShadow" x="-25%" y="-20%" width="150%" height="150%">
      <feDropShadow dx="0" dy="18" stdDeviation="24" flood-color="#0F172A" flood-opacity="0.18"/>
    </filter>
    <filter id="toothShadow" x="-22%" y="-18%" width="144%" height="150%">
      <feDropShadow dx="0" dy="12" stdDeviation="15" flood-color="#1E3A8A" flood-opacity="0.16"/>
    </filter>
  </defs>
  <rect x="48" y="48" width="416" height="416" rx="112" fill="url(#card)" filter="url(#softShadow)"/>
  <rect x="64" y="64" width="384" height="384" rx="98" fill="url(#glow)"/>
  <path d="M166 119c25-31 63-30 90-8 27-22 65-23 90 8 34 43 11 103-2 137-10 27-11 56-16 83-8 44-24 76-49 76-19 0-20-48-24-76-3-21-8-39-18-39s-15 18-18 39c-4 28-5 76-24 76-25 0-41-32-49-76-5-27-6-56-16-83-13-34-36-94-2-137z" fill="url(#tooth)" filter="url(#toothShadow)"/>
  <path d="M177 130c21-25 54-22 79-1 25-21 58-24 79 1 8 10 13 22 15 35-26-19-51-19-74-3-13 9-27 9-40 0-23-16-48-16-74 3 2-13 7-25 15-35z" fill="#FFFFFF" opacity="0.82"/>
  <path d="M204 143c16-16 35-15 52 0-14 47-21 94-20 142-18 2-35 16-44 39-5-23-7-46-15-68-10-29-24-72 27-113z" fill="url(#enamel)" opacity="0.92"/>
  <path d="M318 153c18 28 11 68-2 101-9 24-11 51-15 77-3 18-7 34-13 45" fill="none" stroke="#B7D7F2" stroke-width="10" stroke-linecap="round" opacity="0.36"/>
  <path d="M198 120c17-11 38-9 56 5" fill="none" stroke="#FFFFFF" stroke-width="12" stroke-linecap="round" opacity="0.78"/>
  <path d="M344 88 356 114 384 126 356 138 344 164 332 138 304 126 332 114z" fill="#38BDF8" opacity="0.72"/>
  <path d="M136 300l8 17 18 8-18 8-8 17-8-17-18-8 18-8z" fill="#60A5FA" opacity="0.5"/>
</svg>
