<svg xmlns="http://www.w3.org/2000/svg" viewBox="0 0 512 512" role="img" aria-label="Stamotology app icon"><defs><linearGradient id="bg" x1="72" y1="54" x2="440" y2="458" gradientUnits="userSpaceOnUse"><stop offset="0" stop-color="#38BDF8"/><stop offset="0.52" stop-color="#2563EB"/><stop offset="1" stop-color="#4F46E5"/></linearGradient><filter id="shadow" x="-20%" y="-20%" width="140%" height="140%"><feDropShadow dx="0" dy="20" stdDeviation="28" flood-color="#0F172A" flood-opacity="0.22"/></filter></defs><rect x="48" y="48" width="416" height="416" rx="112" fill="url(#bg)" filter="url(#shadow)"/><path d="M256 140v232" stroke="#FFFFFF" stroke-width="54" stroke-linecap="round"/><path d="M140 256h232" stroke="#FFFFFF" stroke-width="54" stroke-linecap="round"/><path d="M158 188c50 0 90 40 90 90v54h-54c-50 0-90-40-90-90v-54h54Z" fill="#ECFEFF" opacity="0.94"/><path d="M354 188c-50 0-90 40-90 90v54h54c50 0 90-40 90-90v-54h-54Z" fill="#ECFEFF" opacity="0.94"/><path d="M256 170v172" stroke="#2563EB" stroke-width="28" stroke-linecap="round"/><path d="M170 256h172" stroke="#2563EB" stroke-width="28" stroke-linecap="round"/></svg>
